<?xml version="1.0" encoding="UTF-8" standalone="no"?>
<!DOCTYPE svg PUBLIC "-//W3C//DTD SVG 1.1//EN"
 "http://www.w3.org/Graphics/SVG/1.1/DTD/svg11.dtd">
<!-- Generated by graphviz version 2.36.0 (20140111.2315)
 -->
<!-- Title: controllers_diagram Pages: 1 -->
<svg width="756pt" height="726pt"
 viewBox="0.00 0.00 756.00 726.00" xmlns="http://www.w3.org/2000/svg" xmlns:xlink="http://www.w3.org/1999/xlink">
<g id="graph0" class="graph" transform="scale(1 1) rotate(0) translate(4 722)">
<title>controllers_diagram</title>
<polygon fill="none" stroke="none" points="-4,4 -4,-722 752,-722 752,4 -4,4"/>
<!-- _diagram_info -->
<g id="node1" class="node"><title>_diagram_info</title>
<text text-anchor="start" x="314" y="-153.6" font-family="Times,serif" font-size="13.00">Controllers diagram</text>
<text text-anchor="start" x="314" y="-139.6" font-family="Times,serif" font-size="13.00">Date: Dec 10 2015 &#45; 13:58</text>
<text text-anchor="start" x="314" y="-125.6" font-family="Times,serif" font-size="13.00">Migration version: 20151210033557</text>
<text text-anchor="start" x="314" y="-111.6" font-family="Times,serif" font-size="13.00">Generated by RailRoady 1.4.2</text>
<text text-anchor="start" x="314" y="-97.6" font-family="Times,serif" font-size="13.00">http://railroady.prestonlee.com</text>
</g>
<!-- ApplicationController -->
<g id="node2" class="node"><title>ApplicationController</title>
<path fill="none" stroke="black" d="M624,-468.5C624,-468.5 736,-468.5 736,-468.5 742,-468.5 748,-474.5 748,-480.5 748,-480.5 748,-550.5 748,-550.5 748,-556.5 742,-562.5 736,-562.5 736,-562.5 624,-562.5 624,-562.5 618,-562.5 612,-556.5 612,-550.5 612,-550.5 612,-480.5 612,-480.5 612,-474.5 618,-468.5 624,-468.5"/>
<text text-anchor="middle" x="680" y="-547.3" font-family="Times,serif" font-size="14.00">ApplicationController</text>
<polyline fill="none" stroke="black" points="612,-539.5 748,-539.5 "/>
<polyline fill="none" stroke="black" points="612,-515.5 748,-515.5 "/>
<polyline fill="none" stroke="black" points="612,-491.5 748,-491.5 "/>
<text text-anchor="start" x="620" y="-476.3" font-family="Times,serif" font-size="14.00">_layout</text>
</g>
<!-- CompetitionsController -->
<g id="node3" class="node"><title>CompetitionsController</title>
<path fill="none" stroke="black" d="M408,-216.5C408,-216.5 530,-216.5 530,-216.5 536,-216.5 542,-222.5 542,-228.5 542,-228.5 542,-417.5 542,-417.5 542,-423.5 536,-429.5 530,-429.5 530,-429.5 408,-429.5 408,-429.5 402,-429.5 396,-423.5 396,-417.5 396,-417.5 396,-228.5 396,-228.5 396,-222.5 402,-216.5 408,-216.5"/>
<text text-anchor="middle" x="469" y="-414.3" font-family="Times,serif" font-size="14.00">CompetitionsController</text>
<polyline fill="none" stroke="black" points="396,-406.5 542,-406.5 "/>
<text text-anchor="start" x="404" y="-391.3" font-family="Times,serif" font-size="14.00">create</text>
<text text-anchor="start" x="404" y="-376.3" font-family="Times,serif" font-size="14.00">destroy</text>
<text text-anchor="start" x="404" y="-361.3" font-family="Times,serif" font-size="14.00">edit</text>
<text text-anchor="start" x="404" y="-346.3" font-family="Times,serif" font-size="14.00">index</text>
<text text-anchor="start" x="404" y="-331.3" font-family="Times,serif" font-size="14.00">new</text>
<text text-anchor="start" x="404" y="-316.3" font-family="Times,serif" font-size="14.00">show</text>
<text text-anchor="start" x="404" y="-301.3" font-family="Times,serif" font-size="14.00">update</text>
<polyline fill="none" stroke="black" points="396,-293.5 542,-293.5 "/>
<polyline fill="none" stroke="black" points="396,-269.5 542,-269.5 "/>
<text text-anchor="start" x="404" y="-254.3" font-family="Times,serif" font-size="14.00">_layout</text>
<text text-anchor="start" x="404" y="-239.3" font-family="Times,serif" font-size="14.00">competition_params</text>
<text text-anchor="start" x="404" y="-224.3" font-family="Times,serif" font-size="14.00">set_competition</text>
</g>
<!-- CupsController -->
<g id="node4" class="node"><title>CupsController</title>
<path fill="none" stroke="black" d="M120,-504.5C120,-504.5 196,-504.5 196,-504.5 202,-504.5 208,-510.5 208,-516.5 208,-516.5 208,-705.5 208,-705.5 208,-711.5 202,-717.5 196,-717.5 196,-717.5 120,-717.5 120,-717.5 114,-717.5 108,-711.5 108,-705.5 108,-705.5 108,-516.5 108,-516.5 108,-510.5 114,-504.5 120,-504.5"/>
<text text-anchor="middle" x="158" y="-702.3" font-family="Times,serif" font-size="14.00">CupsController</text>
<polyline fill="none" stroke="black" points="108,-694.5 208,-694.5 "/>
<text text-anchor="start" x="116" y="-679.3" font-family="Times,serif" font-size="14.00">create</text>
<text text-anchor="start" x="116" y="-664.3" font-family="Times,serif" font-size="14.00">destroy</text>
<text text-anchor="start" x="116" y="-649.3" font-family="Times,serif" font-size="14.00">edit</text>
<text text-anchor="start" x="116" y="-634.3" font-family="Times,serif" font-size="14.00">index</text>
<text text-anchor="start" x="116" y="-619.3" font-family="Times,serif" font-size="14.00">new</text>
<text text-anchor="start" x="116" y="-604.3" font-family="Times,serif" font-size="14.00">show</text>
<text text-anchor="start" x="116" y="-589.3" font-family="Times,serif" font-size="14.00">update</text>
<polyline fill="none" stroke="black" points="108,-581.5 208,-581.5 "/>
<polyline fill="none" stroke="black" points="108,-557.5 208,-557.5 "/>
<text text-anchor="start" x="116" y="-542.3" font-family="Times,serif" font-size="14.00">_layout</text>
<text text-anchor="start" x="116" y="-527.3" font-family="Times,serif" font-size="14.00">cup_params</text>
<text text-anchor="start" x="116" y="-512.3" font-family="Times,serif" font-size="14.00">set_cup</text>
</g>
<!-- FixturesController -->
<g id="node5" class="node"><title>FixturesController</title>
<path fill="none" stroke="black" d="M264,-450.5C264,-450.5 356,-450.5 356,-450.5 362,-450.5 368,-456.5 368,-462.5 368,-462.5 368,-651.5 368,-651.5 368,-657.5 362,-663.5 356,-663.5 356,-663.5 264,-663.5 264,-663.5 258,-663.5 252,-657.5 252,-651.5 252,-651.5 252,-462.5 252,-462.5 252,-456.5 258,-450.5 264,-450.5"/>
<text text-anchor="middle" x="310" y="-648.3" font-family="Times,serif" font-size="14.00">FixturesController</text>
<polyline fill="none" stroke="black" points="252,-640.5 368,-640.5 "/>
<text text-anchor="start" x="260" y="-625.3" font-family="Times,serif" font-size="14.00">create</text>
<text text-anchor="start" x="260" y="-610.3" font-family="Times,serif" font-size="14.00">destroy</text>
<text text-anchor="start" x="260" y="-595.3" font-family="Times,serif" font-size="14.00">edit</text>
<text text-anchor="start" x="260" y="-580.3" font-family="Times,serif" font-size="14.00">index</text>
<text text-anchor="start" x="260" y="-565.3" font-family="Times,serif" font-size="14.00">new</text>
<text text-anchor="start" x="260" y="-550.3" font-family="Times,serif" font-size="14.00">show</text>
<text text-anchor="start" x="260" y="-535.3" font-family="Times,serif" font-size="14.00">update</text>
<polyline fill="none" stroke="black" points="252,-527.5 368,-527.5 "/>
<polyline fill="none" stroke="black" points="252,-503.5 368,-503.5 "/>
<text text-anchor="start" x="260" y="-488.3" font-family="Times,serif" font-size="14.00">_layout</text>
<text text-anchor="start" x="260" y="-473.3" font-family="Times,serif" font-size="14.00">fixture_params</text>
<text text-anchor="start" x="260" y="-458.3" font-family="Times,serif" font-size="14.00">set_fixture</text>
</g>
<!-- FriendshipsController -->
<g id="node6" class="node"><title>FriendshipsController</title>
<path fill="none" stroke="black" d="M588,-288.5C588,-288.5 699,-288.5 699,-288.5 705,-288.5 711,-294.5 711,-300.5 711,-300.5 711,-414.5 711,-414.5 711,-420.5 705,-426.5 699,-426.5 699,-426.5 588,-426.5 588,-426.5 582,-426.5 576,-420.5 576,-414.5 576,-414.5 576,-300.5 576,-300.5 576,-294.5 582,-288.5 588,-288.5"/>
<text text-anchor="middle" x="643.5" y="-411.3" font-family="Times,serif" font-size="14.00">FriendshipsController</text>
<polyline fill="none" stroke="black" points="576,-403.5 711,-403.5 "/>
<text text-anchor="start" x="584" y="-388.3" font-family="Times,serif" font-size="14.00">create</text>
<text text-anchor="start" x="584" y="-373.3" font-family="Times,serif" font-size="14.00">destroy</text>
<text text-anchor="start" x="584" y="-358.3" font-family="Times,serif" font-size="14.00">update</text>
<polyline fill="none" stroke="black" points="576,-350.5 711,-350.5 "/>
<polyline fill="none" stroke="black" points="576,-326.5 711,-326.5 "/>
<text text-anchor="start" x="584" y="-311.3" font-family="Times,serif" font-size="14.00">_layout</text>
<text text-anchor="start" x="584" y="-296.3" font-family="Times,serif" font-size="14.00">friendship_params</text>
</g>
<!-- LeaguesController -->
<g id="node7" class="node"><title>LeaguesController</title>
<path fill="none" stroke="black" d="M480,-468.5C480,-468.5 573,-468.5 573,-468.5 579,-468.5 585,-474.5 585,-480.5 585,-480.5 585,-669.5 585,-669.5 585,-675.5 579,-681.5 573,-681.5 573,-681.5 480,-681.5 480,-681.5 474,-681.5 468,-675.5 468,-669.5 468,-669.5 468,-480.5 468,-480.5 468,-474.5 474,-468.5 480,-468.5"/>
<text text-anchor="middle" x="526.5" y="-666.3" font-family="Times,serif" font-size="14.00">LeaguesController</text>
<polyline fill="none" stroke="black" points="468,-658.5 585,-658.5 "/>
<text text-anchor="start" x="476" y="-643.3" font-family="Times,serif" font-size="14.00">create</text>
<text text-anchor="start" x="476" y="-628.3" font-family="Times,serif" font-size="14.00">destroy</text>
<text text-anchor="start" x="476" y="-613.3" font-family="Times,serif" font-size="14.00">edit</text>
<text text-anchor="start" x="476" y="-598.3" font-family="Times,serif" font-size="14.00">index</text>
<text text-anchor="start" x="476" y="-583.3" font-family="Times,serif" font-size="14.00">new</text>
<text text-anchor="start" x="476" y="-568.3" font-family="Times,serif" font-size="14.00">show</text>
<text text-anchor="start" x="476" y="-553.3" font-family="Times,serif" font-size="14.00">update</text>
<polyline fill="none" stroke="black" points="468,-545.5 585,-545.5 "/>
<polyline fill="none" stroke="black" points="468,-521.5 585,-521.5 "/>
<text text-anchor="start" x="476" y="-506.3" font-family="Times,serif" font-size="14.00">_layout</text>
<text text-anchor="start" x="476" y="-491.3" font-family="Times,serif" font-size="14.00">league_params</text>
<text text-anchor="start" x="476" y="-476.3" font-family="Times,serif" font-size="14.00">set_league</text>
</g>
<!-- OrganisationsController -->
<g id="node8" class="node"><title>OrganisationsController</title>
<path fill="none" stroke="black" d="M228,-198.5C228,-198.5 351,-198.5 351,-198.5 357,-198.5 363,-204.5 363,-210.5 363,-210.5 363,-399.5 363,-399.5 363,-405.5 357,-411.5 351,-411.5 351,-411.5 228,-411.5 228,-411.5 222,-411.5 216,-405.5 216,-399.5 216,-399.5 216,-210.5 216,-210.5 216,-204.5 222,-198.5 228,-198.5"/>
<text text-anchor="middle" x="289.5" y="-396.3" font-family="Times,serif" font-size="14.00">OrganisationsController</text>
<polyline fill="none" stroke="black" points="216,-388.5 363,-388.5 "/>
<text text-anchor="start" x="224" y="-373.3" font-family="Times,serif" font-size="14.00">create</text>
<text text-anchor="start" x="224" y="-358.3" font-family="Times,serif" font-size="14.00">destroy</text>
<text text-anchor="start" x="224" y="-343.3" font-family="Times,serif" font-size="14.00">edit</text>
<text text-anchor="start" x="224" y="-328.3" font-family="Times,serif" font-size="14.00">index</text>
<text text-anchor="start" x="224" y="-313.3" font-family="Times,serif" font-size="14.00">new</text>
<text text-anchor="start" x="224" y="-298.3" font-family="Times,serif" font-size="14.00">show</text>
<text text-anchor="start" x="224" y="-283.3" font-family="Times,serif" font-size="14.00">update</text>
<polyline fill="none" stroke="black" points="216,-275.5 363,-275.5 "/>
<polyline fill="none" stroke="black" points="216,-251.5 363,-251.5 "/>
<text text-anchor="start" x="224" y="-236.3" font-family="Times,serif" font-size="14.00">_layout</text>
<text text-anchor="start" x="224" y="-221.3" font-family="Times,serif" font-size="14.00">organisation_params</text>
<text text-anchor="start" x="224" y="-206.3" font-family="Times,serif" font-size="14.00">set_organisation</text>
</g>
<!-- ScoresController -->
<g id="node9" class="node"><title>ScoresController</title>
<path fill="none" stroke="black" d="M84,-252.5C84,-252.5 168,-252.5 168,-252.5 174,-252.5 180,-258.5 180,-264.5 180,-264.5 180,-453.5 180,-453.5 180,-459.5 174,-465.5 168,-465.5 168,-465.5 84,-465.5 84,-465.5 78,-465.5 72,-459.5 72,-453.5 72,-453.5 72,-264.5 72,-264.5 72,-258.5 78,-252.5 84,-252.5"/>
<text text-anchor="middle" x="126" y="-450.3" font-family="Times,serif" font-size="14.00">ScoresController</text>
<polyline fill="none" stroke="black" points="72,-442.5 180,-442.5 "/>
<text text-anchor="start" x="80" y="-427.3" font-family="Times,serif" font-size="14.00">create</text>
<text text-anchor="start" x="80" y="-412.3" font-family="Times,serif" font-size="14.00">destroy</text>
<text text-anchor="start" x="80" y="-397.3" font-family="Times,serif" font-size="14.00">edit</text>
<text text-anchor="start" x="80" y="-382.3" font-family="Times,serif" font-size="14.00">index</text>
<text text-anchor="start" x="80" y="-367.3" font-family="Times,serif" font-size="14.00">new</text>
<text text-anchor="start" x="80" y="-352.3" font-family="Times,serif" font-size="14.00">show</text>
<text text-anchor="start" x="80" y="-337.3" font-family="Times,serif" font-size="14.00">update</text>
<polyline fill="none" stroke="black" points="72,-329.5 180,-329.5 "/>
<polyline fill="none" stroke="black" points="72,-305.5 180,-305.5 "/>
<text text-anchor="start" x="80" y="-290.3" font-family="Times,serif" font-size="14.00">_layout</text>
<text text-anchor="start" x="80" y="-275.3" font-family="Times,serif" font-size="14.00">score_params</text>
<text text-anchor="start" x="80" y="-260.3" font-family="Times,serif" font-size="14.00">set_score</text>
</g>
<!-- SportsController -->
<g id="node10" class="node"><title>SportsController</title>
<path fill="none" stroke="black" d="M588,-36.5C588,-36.5 671,-36.5 671,-36.5 677,-36.5 683,-42.5 683,-48.5 683,-48.5 683,-237.5 683,-237.5 683,-243.5 677,-249.5 671,-249.5 671,-249.5 588,-249.5 588,-249.5 582,-249.5 576,-243.5 576,-237.5 576,-237.5 576,-48.5 576,-48.5 576,-42.5 582,-36.5 588,-36.5"/>
<text text-anchor="middle" x="629.5" y="-234.3" font-family="Times,serif" font-size="14.00">SportsController</text>
<polyline fill="none" stroke="black" points="576,-226.5 683,-226.5 "/>
<text text-anchor="start" x="584" y="-211.3" font-family="Times,serif" font-size="14.00">create</text>
<text text-anchor="start" x="584" y="-196.3" font-family="Times,serif" font-size="14.00">destroy</text>
<text text-anchor="start" x="584" y="-181.3" font-family="Times,serif" font-size="14.00">edit</text>
<text text-anchor="start" x="584" y="-166.3" font-family="Times,serif" font-size="14.00">index</text>
<text text-anchor="start" x="584" y="-151.3" font-family="Times,serif" font-size="14.00">new</text>
<text text-anchor="start" x="584" y="-136.3" font-family="Times,serif" font-size="14.00">show</text>
<text text-anchor="start" x="584" y="-121.3" font-family="Times,serif" font-size="14.00">update</text>
<polyline fill="none" stroke="black" points="576,-113.5 683,-113.5 "/>
<polyline fill="none" stroke="black" points="576,-89.5 683,-89.5 "/>
<text text-anchor="start" x="584" y="-74.3" font-family="Times,serif" font-size="14.00">_layout</text>
<text text-anchor="start" x="584" y="-59.3" font-family="Times,serif" font-size="14.00">set_sport</text>
<text text-anchor="start" x="584" y="-44.3" font-family="Times,serif" font-size="14.00">sport_params</text>
</g>
<!-- TeamsController -->
<g id="node11" class="node"><title>TeamsController</title>
<path fill="none" stroke="black" d="M12,-0.5C12,-0.5 97,-0.5 97,-0.5 103,-0.5 109,-6.5 109,-12.5 109,-12.5 109,-201.5 109,-201.5 109,-207.5 103,-213.5 97,-213.5 97,-213.5 12,-213.5 12,-213.5 6,-213.5 0,-207.5 0,-201.5 0,-201.5 0,-12.5 0,-12.5 0,-6.5 6,-0.5 12,-0.5"/>
<text text-anchor="middle" x="54.5" y="-198.3" font-family="Times,serif" font-size="14.00">TeamsController</text>
<polyline fill="none" stroke="black" points="0,-190.5 109,-190.5 "/>
<text text-anchor="start" x="8" y="-175.3" font-family="Times,serif" font-size="14.00">create</text>
<text text-anchor="start" x="8" y="-160.3" font-family="Times,serif" font-size="14.00">destroy</text>
<text text-anchor="start" x="8" y="-145.3" font-family="Times,serif" font-size="14.00">edit</text>
<text text-anchor="start" x="8" y="-130.3" font-family="Times,serif" font-size="14.00">index</text>
<text text-anchor="start" x="8" y="-115.3" font-family="Times,serif" font-size="14.00">new</text>
<text text-anchor="start" x="8" y="-100.3" font-family="Times,serif" font-size="14.00">show</text>
<text text-anchor="start" x="8" y="-85.3" font-family="Times,serif" font-size="14.00">update</text>
<polyline fill="none" stroke="black" points="0,-77.5 109,-77.5 "/>
<polyline fill="none" stroke="black" points="0,-53.5 109,-53.5 "/>
<text text-anchor="start" x="8" y="-38.3" font-family="Times,serif" font-size="14.00">_layout</text>
<text text-anchor="start" x="8" y="-23.3" font-family="Times,serif" font-size="14.00">set_team</text>
<text text-anchor="start" x="8" y="-8.3" font-family="Times,serif" font-size="14.00">team_params</text>
</g>
<!-- UsersController -->
<g id="node12" class="node"><title>UsersController</title>
<path fill="none" stroke="black" d="M156,-0.5C156,-0.5 235,-0.5 235,-0.5 241,-0.5 247,-6.5 247,-12.5 247,-12.5 247,-141.5 247,-141.5 247,-147.5 241,-153.5 235,-153.5 235,-153.5 156,-153.5 156,-153.5 150,-153.5 144,-147.5 144,-141.5 144,-141.5 144,-12.5 144,-12.5 144,-6.5 150,-0.5 156,-0.5"/>
<text text-anchor="middle" x="195.5" y="-138.3" font-family="Times,serif" font-size="14.00">UsersController</text>
<polyline fill="none" stroke="black" points="144,-130.5 247,-130.5 "/>
<text text-anchor="start" x="152" y="-115.3" font-family="Times,serif" font-size="14.00">destroy</text>
<text text-anchor="start" x="152" y="-100.3" font-family="Times,serif" font-size="14.00">index</text>
<text text-anchor="start" x="152" y="-85.3" font-family="Times,serif" font-size="14.00">show</text>
<text text-anchor="start" x="152" y="-70.3" font-family="Times,serif" font-size="14.00">update</text>
<polyline fill="none" stroke="black" points="144,-62.5 247,-62.5 "/>
<polyline fill="none" stroke="black" points="144,-38.5 247,-38.5 "/>
<text text-anchor="start" x="152" y="-23.3" font-family="Times,serif" font-size="14.00">_layout</text>
<text text-anchor="start" x="152" y="-8.3" font-family="Times,serif" font-size="14.00">secure_params</text>
</g>
<!-- VisitorsController -->
<g id="node13" class="node"><title>VisitorsController</title>
<path fill="none" stroke="black" d="M624,-594.5C624,-594.5 715,-594.5 715,-594.5 721,-594.5 727,-600.5 727,-606.5 727,-606.5 727,-676.5 727,-676.5 727,-682.5 721,-688.5 715,-688.5 715,-688.5 624,-688.5 624,-688.5 618,-688.5 612,-682.5 612,-676.5 612,-676.5 612,-606.5 612,-606.5 612,-600.5 618,-594.5 624,-594.5"/>
<text text-anchor="middle" x="669.5" y="-673.3" font-family="Times,serif" font-size="14.00">VisitorsController</text>
<polyline fill="none" stroke="black" points="612,-665.5 727,-665.5 "/>
<polyline fill="none" stroke="black" points="612,-641.5 727,-641.5 "/>
<polyline fill="none" stroke="black" points="612,-617.5 727,-617.5 "/>
<text text-anchor="start" x="620" y="-602.3" font-family="Times,serif" font-size="14.00">_layout</text>
</g>
</g>
</svg>
