<?xml version="1.0" encoding="UTF-8" standalone="no"?>
<!DOCTYPE svg PUBLIC "-//W3C//DTD SVG 1.1//EN"
 "http://www.w3.org/Graphics/SVG/1.1/DTD/svg11.dtd">
<!-- Generated by graphviz version 2.36.0 (20140111.2315)
 -->
<!-- Title: models_diagram Pages: 1 -->
<svg width="912pt" height="484pt"
 viewBox="0.00 0.00 912.00 484.00" xmlns="http://www.w3.org/2000/svg" xmlns:xlink="http://www.w3.org/1999/xlink">
<g id="graph0" class="graph" transform="scale(1 1) rotate(0) translate(4 480)">
<title>models_diagram</title>
<polygon fill="none" stroke="none" points="-4,4 -4,-480 908,-480 908,4 -4,4"/>
<!-- _diagram_info -->
<g id="node1" class="node"><title>_diagram_info</title>
<text text-anchor="start" x="8" y="-461.6" font-family="Times,serif" font-size="13.00">Models diagram</text>
<text text-anchor="start" x="8" y="-447.6" font-family="Times,serif" font-size="13.00">Date: Dec 10 2015 &#45; 13:57</text>
<text text-anchor="start" x="8" y="-433.6" font-family="Times,serif" font-size="13.00">Migration version: 20151210033557</text>
<text text-anchor="start" x="8" y="-419.6" font-family="Times,serif" font-size="13.00">Generated by RailRoady 1.4.2</text>
<text text-anchor="start" x="8" y="-405.6" font-family="Times,serif" font-size="13.00">http://railroady.prestonlee.com</text>
</g>
<!-- Competition -->
<g id="node2" class="node"><title>Competition</title>
<ellipse fill="none" stroke="black" cx="299" cy="-342" rx="55.3682" ry="18"/>
<text text-anchor="middle" x="299" y="-338.3" font-family="Times,serif" font-size="14.00">Competition</text>
</g>
<!-- Fixture -->
<g id="node4" class="node"><title>Fixture</title>
<ellipse fill="none" stroke="black" cx="251" cy="-268" rx="36.096" ry="18"/>
<text text-anchor="middle" x="251" y="-264.3" font-family="Times,serif" font-size="14.00">Fixture</text>
</g>
<!-- Competition&#45;&gt;Fixture -->
<g id="edge2" class="edge"><title>Competition&#45;&gt;Fixture</title>
<path fill="none" stroke="#1f9db3" d="M283.271,-317.406C278.29,-309.934 272.767,-301.651 267.719,-294.079"/>
<ellipse fill="none" stroke="#1f9db3" cx="285.648" cy="-320.973" rx="4.00002" ry="4.00002"/>
<polygon fill="#1f9db3" stroke="#1f9db3" points="267.619,-293.929 265.817,-283.112 264.846,-289.769 262.072,-285.609 262.072,-285.609 262.072,-285.609 264.846,-289.769 258.328,-288.105 267.619,-293.929 267.619,-293.929"/>
</g>
<!-- Team -->
<g id="node10" class="node"><title>Team</title>
<ellipse fill="none" stroke="black" cx="315" cy="-194" rx="31.2965" ry="18"/>
<text text-anchor="middle" x="315" y="-190.3" font-family="Times,serif" font-size="14.00">Team</text>
</g>
<!-- Competition&#45;&gt;Team -->
<g id="edge1" class="edge"><title>Competition&#45;&gt;Team</title>
<path fill="none" stroke="#cb724f" d="M301.973,-313.872C304.832,-287.785 309.131,-248.557 311.999,-222.384"/>
<polygon fill="#cb724f" stroke="#cb724f" points="301.956,-314.026 296.393,-323.476 301.411,-318.996 300.867,-323.966 300.867,-323.966 300.867,-323.966 301.411,-318.996 305.34,-324.456 301.956,-314.026 301.956,-314.026"/>
<polygon fill="#cb724f" stroke="#cb724f" points="312.006,-222.318 317.569,-212.868 312.551,-217.348 313.096,-212.378 313.096,-212.378 313.096,-212.378 312.551,-217.348 308.622,-211.888 312.006,-222.318 312.006,-222.318"/>
</g>
<!-- Cup -->
<g id="node3" class="node"><title>Cup</title>
<ellipse fill="none" stroke="black" cx="259" cy="-437" rx="27" ry="18"/>
<text text-anchor="middle" x="259" y="-433.3" font-family="Times,serif" font-size="14.00">Cup</text>
</g>
<!-- Cup&#45;&gt;Competition -->
<g id="edge3" class="edge"><title>Cup&#45;&gt;Competition</title>
<path fill="none" stroke="#4d498d" d="M269.392,-411.839C275.226,-398.275 282.491,-381.384 288.364,-367.729"/>
<ellipse fill="none" stroke="#4d498d" cx="267.732" cy="-415.699" rx="4.00002" ry="4.00002"/>
<ellipse fill="#4d498d" stroke="#4d498d" cx="290.06" cy="-363.786" rx="4.00002" ry="4.00002"/>
</g>
<!-- Score -->
<g id="node8" class="node"><title>Score</title>
<ellipse fill="none" stroke="black" cx="235" cy="-194" rx="30.3206" ry="18"/>
<text text-anchor="middle" x="235" y="-190.3" font-family="Times,serif" font-size="14.00">Score</text>
</g>
<!-- Fixture&#45;&gt;Score -->
<g id="edge4" class="edge"><title>Fixture&#45;&gt;Score</title>
<path fill="none" stroke="#2e8f3f" d="M245.437,-241.965C243.989,-235.452 242.424,-228.41 240.958,-221.809"/>
<ellipse fill="none" stroke="#2e8f3f" cx="246.34" cy="-246.032" rx="4.00001" ry="4.00001"/>
<polygon fill="#2e8f3f" stroke="#2e8f3f" points="240.934,-221.702 243.157,-210.964 239.849,-216.821 238.765,-211.941 238.765,-211.941 238.765,-211.941 239.849,-216.821 234.372,-212.917 240.934,-221.702 240.934,-221.702"/>
</g>
<!-- Fixture&#45;&gt;Team -->
<g id="edge5" class="edge"><title>Fixture&#45;&gt;Team</title>
<path fill="none" stroke="#981f06" d="M271.581,-243.847C278.904,-235.608 287.146,-226.336 294.465,-218.102"/>
<polygon fill="#981f06" stroke="#981f06" points="271.531,-243.903 261.524,-248.387 268.209,-247.64 264.887,-251.377 264.887,-251.377 264.887,-251.377 268.209,-247.64 268.25,-254.367 271.531,-243.903 271.531,-243.903"/>
<polygon fill="#981f06" stroke="#981f06" points="294.496,-218.067 304.503,-213.582 297.818,-214.329 301.14,-210.592 301.14,-210.592 301.14,-210.592 297.818,-214.329 297.777,-207.603 294.496,-218.067 294.496,-218.067"/>
</g>
<!-- Friendship -->
<g id="node5" class="node"><title>Friendship</title>
<ellipse fill="none" stroke="black" cx="315" cy="-18" rx="48.1437" ry="18"/>
<text text-anchor="middle" x="315" y="-14.3" font-family="Times,serif" font-size="14.00">Friendship</text>
</g>
<!-- League -->
<g id="node6" class="node"><title>League</title>
<ellipse fill="none" stroke="black" cx="340" cy="-437" rx="36.096" ry="18"/>
<text text-anchor="middle" x="340" y="-433.3" font-family="Times,serif" font-size="14.00">League</text>
</g>
<!-- League&#45;&gt;Competition -->
<g id="edge6" class="edge"><title>League&#45;&gt;Competition</title>
<path fill="none" stroke="#c8381e" d="M329.153,-411.396C323.174,-397.833 315.775,-381.05 309.802,-367.503"/>
<ellipse fill="none" stroke="#c8381e" cx="330.866" cy="-415.282" rx="4.00002" ry="4.00002"/>
<ellipse fill="#c8381e" stroke="#c8381e" cx="308.086" cy="-363.61" rx="4.00002" ry="4.00002"/>
</g>
<!-- Organisation -->
<g id="node7" class="node"><title>Organisation</title>
<ellipse fill="none" stroke="black" cx="450" cy="-437" rx="55.3436" ry="18"/>
<text text-anchor="middle" x="450" y="-433.3" font-family="Times,serif" font-size="14.00">Organisation</text>
</g>
<!-- Sport -->
<g id="node9" class="node"><title>Sport</title>
<ellipse fill="none" stroke="black" cx="554" cy="-437" rx="29.3479" ry="18"/>
<text text-anchor="middle" x="554" y="-433.3" font-family="Times,serif" font-size="14.00">Sport</text>
</g>
<!-- TeamsCompetition -->
<g id="node11" class="node"><title>TeamsCompetition</title>
<ellipse fill="none" stroke="black" cx="190" cy="-106" rx="78.9404" ry="18"/>
<text text-anchor="middle" x="190" y="-102.3" font-family="Times,serif" font-size="14.00">TeamsCompetition</text>
</g>
<!-- Team&#45;&gt;TeamsCompetition -->
<g id="edge10" class="edge"><title>Team&#45;&gt;TeamsCompetition</title>
<path fill="none" stroke="#ad792e" d="M282.933,-179.533C261.266,-170.371 236.209,-159.622 234,-158 224.186,-150.793 215.076,-141.011 207.721,-131.942"/>
<ellipse fill="none" stroke="#ad792e" cx="286.728" cy="-181.135" rx="4.00002" ry="4.00002"/>
<polygon fill="#ad792e" stroke="#ad792e" points="207.619,-131.81 205.046,-121.15 204.554,-127.859 201.49,-123.907 201.49,-123.907 201.49,-123.907 204.554,-127.859 197.934,-126.665 207.619,-131.81 207.619,-131.81"/>
</g>
<!-- User -->
<g id="node12" class="node"><title>User</title>
<ellipse fill="none" stroke="black" cx="315" cy="-106" rx="26.949" ry="18"/>
<text text-anchor="middle" x="315" y="-102.3" font-family="Times,serif" font-size="14.00">User</text>
</g>
<!-- Team&#45;&gt;User -->
<g id="edge8" class="edge"><title>Team&#45;&gt;User</title>
<path fill="none" stroke="#a254c1" d="M280.784,-178.799C262.6,-170.907 243.477,-161.911 241,-158 237.196,-151.992 237.196,-148.008 241,-142 241.669,-140.944 263.96,-130.474 283.902,-121.259"/>
<polygon fill="#a254c1" stroke="#a254c1" points="280.921,-178.857 288.344,-186.929 285.518,-180.825 290.114,-182.792 290.114,-182.792 290.114,-182.792 285.518,-180.825 291.885,-178.655 280.921,-178.857 280.921,-178.857"/>
<polygon fill="#a254c1" stroke="#a254c1" points="284.023,-121.203 294.988,-121.104 288.563,-119.11 293.104,-117.017 293.104,-117.017 293.104,-117.017 288.563,-119.11 291.22,-112.93 284.023,-121.203 284.023,-121.203"/>
<text text-anchor="middle" x="267" y="-146.3" font-family="Times,serif" font-size="14.00">members</text>
</g>
<!-- Team&#45;&gt;User -->
<g id="edge9" class="edge"><title>Team&#45;&gt;User</title>
<path fill="none" stroke="#f8fe11" d="M315,-165.342C315,-155.378 315,-144.149 315,-134.223"/>
<polygon fill="#f8fe11" stroke="#f8fe11" points="315,-165.597 310.5,-175.597 315,-170.597 315,-175.597 315,-175.597 315,-175.597 315,-170.597 319.5,-175.597 315,-165.597 315,-165.597"/>
<polygon fill="#f8fe11" stroke="#f8fe11" points="315,-134.084 319.5,-124.084 315,-129.084 315,-124.084 315,-124.084 315,-124.084 315,-129.084 310.5,-124.084 315,-134.084 315,-134.084"/>
<text text-anchor="middle" x="335" y="-146.3" font-family="Times,serif" font-size="14.00">owners</text>
</g>
<!-- UsersTeam -->
<g id="node13" class="node"><title>UsersTeam</title>
<ellipse fill="none" stroke="black" cx="853" cy="-106" rx="51.0191" ry="18"/>
<text text-anchor="middle" x="853" y="-102.3" font-family="Times,serif" font-size="14.00">UsersTeam</text>
</g>
<!-- Team&#45;&gt;UsersTeam -->
<g id="edge7" class="edge"><title>Team&#45;&gt;UsersTeam</title>
<path fill="none" stroke="#77f0c6" d="M353.347,-189.141C434.734,-180.582 630.519,-158.034 792,-124 796.416,-123.069 800.983,-122 805.541,-120.861"/>
<ellipse fill="none" stroke="#77f0c6" cx="349.351" cy="-189.558" rx="4" ry="4"/>
<polygon fill="#77f0c6" stroke="#77f0c6" points="805.763,-120.803 816.575,-122.635 810.601,-119.542 815.44,-118.28 815.44,-118.28 815.44,-118.28 810.601,-119.542 814.305,-113.926 805.763,-120.803 805.763,-120.803"/>
</g>
<!-- User&#45;&gt;Friendship -->
<g id="edge11" class="edge"><title>User&#45;&gt;Friendship</title>
<path fill="none" stroke="#6038e5" d="M313.391,-79.8671C313.229,-76.55 313.091,-73.194 313,-70 312.797,-62.8918 312.797,-61.1082 313,-54 313.073,-51.4448 313.176,-48.7859 313.297,-46.1262"/>
<ellipse fill="none" stroke="#6038e5" cx="313.611" cy="-83.9244" rx="4" ry="4"/>
<polygon fill="#6038e5" stroke="#6038e5" points="313.3,-46.0675 318.322,-36.3193 313.564,-41.0745 313.828,-36.0815 313.828,-36.0815 313.828,-36.0815 313.564,-41.0745 309.334,-35.8437 313.3,-46.0675 313.3,-46.0675"/>
</g>
<!-- User&#45;&gt;Friendship -->
<g id="edge12" class="edge"><title>User&#45;&gt;Friendship</title>
<path fill="none" stroke="#ee333a" d="M315,-79.3391C315,-68.8546 315,-56.7182 315,-46.091"/>
<ellipse fill="none" stroke="#ee333a" cx="315" cy="-83.5966" rx="4" ry="4"/>
<polygon fill="#ee333a" stroke="#ee333a" points="315,-46.084 319.5,-36.084 315,-41.084 315,-36.084 315,-36.084 315,-36.084 315,-41.084 310.5,-36.0841 315,-46.084 315,-46.084"/>
<text text-anchor="middle" x="368.5" y="-58.3" font-family="Times,serif" font-size="14.00">passive_friendships</text>
</g>
<!-- User&#45;&gt;Team -->
<g id="edge17" class="edge"><title>User&#45;&gt;Team</title>
<path fill="none" stroke="#856772" d="M342.763,-124.884C348.122,-129.743 352.998,-135.49 356,-142 361.421,-153.756 353.892,-165.151 343.868,-174.178"/>
<polygon fill="#856772" stroke="#856772" points="342.516,-124.686 337.547,-114.911 338.621,-121.552 334.726,-118.417 334.726,-118.417 334.726,-118.417 338.621,-121.552 331.905,-121.923 342.516,-124.686 342.516,-124.686"/>
<polygon fill="#856772" stroke="#856772" points="343.687,-174.323 333.072,-177.076 339.788,-177.454 335.89,-180.585 335.89,-180.585 335.89,-180.585 339.788,-177.454 338.707,-184.094 343.687,-174.323 343.687,-174.323"/>
</g>
<!-- User&#45;&gt;User -->
<g id="edge13" class="edge"><title>User&#45;&gt;User</title>
<path fill="none" stroke="#3f951a" d="M352.51,-107.778C357.038,-107.457 360,-106.864 360,-106 360,-105.136 357.038,-104.543 352.51,-104.222"/>
<polygon fill="#3f951a" stroke="#3f951a" points="352.237,-107.785 342.117,-103.562 347.239,-107.923 342.241,-108.06 342.241,-108.06 342.241,-108.06 347.239,-107.923 342.365,-112.559 352.237,-107.785 352.237,-107.785"/>
<polygon fill="#3f951a" stroke="#3f951a" points="352.237,-104.215 342.365,-99.4412 347.239,-104.077 342.241,-103.94 342.241,-103.94 342.241,-103.94 347.239,-104.077 342.117,-108.438 352.237,-104.215 352.237,-104.215"/>
<text text-anchor="middle" x="398.5" y="-102.3" font-family="Times,serif" font-size="14.00">active_friends</text>
</g>
<!-- User&#45;&gt;User -->
<g id="edge14" class="edge"><title>User&#45;&gt;User</title>
<path fill="none" stroke="#6ec26f" d="M351.773,-109.512C388.539,-110.981 437,-109.81 437,-106 437,-102.19 388.539,-101.019 351.773,-102.488"/>
<polygon fill="#6ec26f" stroke="#6ec26f" points="351.752,-109.511 341.981,-104.534 346.758,-109.27 341.764,-109.028 341.764,-109.028 341.764,-109.028 346.758,-109.27 341.546,-113.523 351.752,-109.511 351.752,-109.511"/>
<polygon fill="#6ec26f" stroke="#6ec26f" points="351.752,-102.489 341.546,-98.477 346.758,-102.73 341.764,-102.972 341.764,-102.972 341.764,-102.972 346.758,-102.73 341.981,-107.466 351.752,-102.489 351.752,-102.489"/>
<text text-anchor="middle" x="479.5" y="-102.3" font-family="Times,serif" font-size="14.00">passive_friends</text>
</g>
<!-- User&#45;&gt;User -->
<g id="edge15" class="edge"><title>User&#45;&gt;User</title>
<path fill="none" stroke="#3ff91a" d="M351.691,-110.259C412.728,-113.848 522,-112.428 522,-106 522,-99.5721 412.728,-98.1524 351.691,-101.741"/>
<polygon fill="#3ff91a" stroke="#3ff91a" points="351.59,-110.252 341.912,-105.096 346.601,-109.919 341.612,-109.586 341.612,-109.586 341.612,-109.586 346.601,-109.919 341.312,-114.076 351.59,-110.252 351.59,-110.252"/>
<polygon fill="#3ff91a" stroke="#3ff91a" points="351.59,-101.748 341.312,-97.9242 346.601,-102.081 341.612,-102.414 341.612,-102.414 341.612,-102.414 346.601,-102.081 341.912,-106.904 351.59,-101.748 351.59,-101.748"/>
<text text-anchor="middle" x="566" y="-102.3" font-family="Times,serif" font-size="14.00">pending_friends</text>
</g>
<!-- User&#45;&gt;User -->
<g id="edge16" class="edge"><title>User&#45;&gt;User</title>
<path fill="none" stroke="#cc5449" d="M352.042,-110.859C433.582,-116.646 610,-115.026 610,-106 610,-96.9736 433.582,-95.3541 352.042,-101.141"/>
<polygon fill="#cc5449" stroke="#cc5449" points="351.626,-110.826 342.014,-105.548 346.642,-110.43 341.658,-110.034 341.658,-110.034 341.658,-110.034 346.642,-110.43 341.302,-114.52 351.626,-110.826 351.626,-110.826"/>
<polygon fill="#cc5449" stroke="#cc5449" points="351.626,-101.174 341.302,-97.4799 346.642,-101.57 341.658,-101.966 341.658,-101.966 341.658,-101.966 346.642,-101.57 342.014,-106.452 351.626,-101.174 351.626,-101.174"/>
<text text-anchor="middle" x="669.5" y="-102.3" font-family="Times,serif" font-size="14.00">requested_friendships</text>
</g>
</g>
</svg>
