<?xml version="1.0" encoding="UTF-8" standalone="no"?>
<!DOCTYPE svg PUBLIC "-//W3C//DTD SVG 1.1//EN"
 "http://www.w3.org/Graphics/SVG/1.1/DTD/svg11.dtd">
<!-- Generated by graphviz version 2.36.0 (20140111.2315)
 -->
<!-- Title: models_diagram Pages: 1 -->
<svg width="1391pt" height="1274pt"
 viewBox="0.00 0.00 1391.00 1274.00" xmlns="http://www.w3.org/2000/svg" xmlns:xlink="http://www.w3.org/1999/xlink">
<g id="graph0" class="graph" transform="scale(1 1) rotate(0) translate(4 1270)">
<title>models_diagram</title>
<polygon fill="none" stroke="none" points="-4,4 -4,-1270 1387,-1270 1387,4 -4,4"/>
<!-- _diagram_info -->
<g id="node1" class="node"><title>_diagram_info</title>
<text text-anchor="start" x="8" y="-1236.6" font-family="Times,serif" font-size="13.00">Models diagram</text>
<text text-anchor="start" x="8" y="-1222.6" font-family="Times,serif" font-size="13.00">Date: Dec 10 2015 &#45; 13:57</text>
<text text-anchor="start" x="8" y="-1208.6" font-family="Times,serif" font-size="13.00">Migration version: 20151210033557</text>
<text text-anchor="start" x="8" y="-1194.6" font-family="Times,serif" font-size="13.00">Generated by RailRoady 1.4.2</text>
<text text-anchor="start" x="8" y="-1180.6" font-family="Times,serif" font-size="13.00">http://railroady.prestonlee.com</text>
</g>
<!-- Competition -->
<g id="node2" class="node"><title>Competition</title>
<path fill="none" stroke="black" d="M368.5,-968.5C368.5,-968.5 601.5,-968.5 601.5,-968.5 607.5,-968.5 613.5,-974.5 613.5,-980.5 613.5,-980.5 613.5,-1107.5 613.5,-1107.5 613.5,-1113.5 607.5,-1119.5 601.5,-1119.5 601.5,-1119.5 368.5,-1119.5 368.5,-1119.5 362.5,-1119.5 356.5,-1113.5 356.5,-1107.5 356.5,-1107.5 356.5,-980.5 356.5,-980.5 356.5,-974.5 362.5,-968.5 368.5,-968.5"/>
<text text-anchor="middle" x="485" y="-1104.3" font-family="Times,serif" font-size="14.00">Competition</text>
<polyline fill="none" stroke="black" points="356.5,-1096.5 613.5,-1096.5 "/>
<text text-anchor="start" x="364.5" y="-1081.3" font-family="Times,serif" font-size="14.00">id :integer</text>
<text text-anchor="start" x="364.5" y="-1066.3" font-family="Times,serif" font-size="14.00">name :character varying</text>
<text text-anchor="start" x="364.5" y="-1051.3" font-family="Times,serif" font-size="14.00">sport_id :integer</text>
<text text-anchor="start" x="364.5" y="-1036.3" font-family="Times,serif" font-size="14.00">competition_format_id :integer</text>
<text text-anchor="start" x="364.5" y="-1021.3" font-family="Times,serif" font-size="14.00">competition_format_type :character varying</text>
<text text-anchor="start" x="364.5" y="-1006.3" font-family="Times,serif" font-size="14.00">created_at :timestamp without time zone</text>
<text text-anchor="start" x="364.5" y="-991.3" font-family="Times,serif" font-size="14.00">updated_at :timestamp without time zone</text>
<text text-anchor="start" x="364.5" y="-976.3" font-family="Times,serif" font-size="14.00">is_individual :boolean</text>
</g>
<!-- Fixture -->
<g id="node4" class="node"><title>Fixture</title>
<path fill="none" stroke="black" d="M263,-838.5C263,-838.5 483,-838.5 483,-838.5 489,-838.5 495,-844.5 495,-850.5 495,-850.5 495,-917.5 495,-917.5 495,-923.5 489,-929.5 483,-929.5 483,-929.5 263,-929.5 263,-929.5 257,-929.5 251,-923.5 251,-917.5 251,-917.5 251,-850.5 251,-850.5 251,-844.5 257,-838.5 263,-838.5"/>
<text text-anchor="middle" x="373" y="-914.3" font-family="Times,serif" font-size="14.00">Fixture</text>
<polyline fill="none" stroke="black" points="251,-906.5 495,-906.5 "/>
<text text-anchor="start" x="259" y="-891.3" font-family="Times,serif" font-size="14.00">id :integer</text>
<text text-anchor="start" x="259" y="-876.3" font-family="Times,serif" font-size="14.00">competition_id :character varying</text>
<text text-anchor="start" x="259" y="-861.3" font-family="Times,serif" font-size="14.00">created_at :timestamp without time zone</text>
<text text-anchor="start" x="259" y="-846.3" font-family="Times,serif" font-size="14.00">updated_at :timestamp without time zone</text>
</g>
<!-- Competition&#45;&gt;Fixture -->
<g id="edge2" class="edge"><title>Competition&#45;&gt;Fixture</title>
<path fill="none" stroke="#71ea42" d="M427.166,-961.413C421.643,-953.621 416.143,-945.863 410.883,-938.442"/>
<ellipse fill="none" stroke="#71ea42" cx="429.639" cy="-964.901" rx="4.00002" ry="4.00002"/>
<polygon fill="#71ea42" stroke="#71ea42" points="410.613,-938.062 408.501,-927.301 407.722,-933.982 404.83,-929.903 404.83,-929.903 404.83,-929.903 407.722,-933.982 401.159,-932.506 410.613,-938.062 410.613,-938.062"/>
</g>
<!-- Team -->
<g id="node10" class="node"><title>Team</title>
<path fill="none" stroke="black" d="M413,-678.5C413,-678.5 633,-678.5 633,-678.5 639,-678.5 645,-684.5 645,-690.5 645,-690.5 645,-787.5 645,-787.5 645,-793.5 639,-799.5 633,-799.5 633,-799.5 413,-799.5 413,-799.5 407,-799.5 401,-793.5 401,-787.5 401,-787.5 401,-690.5 401,-690.5 401,-684.5 407,-678.5 413,-678.5"/>
<text text-anchor="middle" x="523" y="-784.3" font-family="Times,serif" font-size="14.00">Team</text>
<polyline fill="none" stroke="black" points="401,-776.5 645,-776.5 "/>
<text text-anchor="start" x="409" y="-761.3" font-family="Times,serif" font-size="14.00">id :integer</text>
<text text-anchor="start" x="409" y="-746.3" font-family="Times,serif" font-size="14.00">name :character varying</text>
<text text-anchor="start" x="409" y="-731.3" font-family="Times,serif" font-size="14.00">sport_id :integer</text>
<text text-anchor="start" x="409" y="-716.3" font-family="Times,serif" font-size="14.00">created_at :timestamp without time zone</text>
<text text-anchor="start" x="409" y="-701.3" font-family="Times,serif" font-size="14.00">updated_at :timestamp without time zone</text>
<text text-anchor="start" x="409" y="-686.3" font-family="Times,serif" font-size="14.00">is_individual :boolean</text>
</g>
<!-- Competition&#45;&gt;Team -->
<g id="edge1" class="edge"><title>Competition&#45;&gt;Team</title>
<path fill="none" stroke="#246ef2" d="M499.856,-958.41C501.348,-948.841 502.765,-939.219 504,-930 509.306,-890.375 513.83,-845.92 517.13,-809.978"/>
<polygon fill="#246ef2" stroke="#246ef2" points="499.846,-958.467 493.833,-967.637 499.062,-963.405 498.278,-968.343 498.278,-968.343 498.278,-968.343 499.062,-963.405 502.722,-969.049 499.846,-958.467 499.846,-958.467"/>
<polygon fill="#246ef2" stroke="#246ef2" points="517.168,-809.555 522.553,-800.002 517.62,-804.575 518.071,-799.596 518.071,-799.596 518.071,-799.596 517.62,-804.575 513.59,-799.189 517.168,-809.555 517.168,-809.555"/>
</g>
<!-- Cup -->
<g id="node3" class="node"><title>Cup</title>
<path fill="none" stroke="black" d="M244,-1174C244,-1174 464,-1174 464,-1174 470,-1174 476,-1180 476,-1186 476,-1186 476,-1238 476,-1238 476,-1244 470,-1250 464,-1250 464,-1250 244,-1250 244,-1250 238,-1250 232,-1244 232,-1238 232,-1238 232,-1186 232,-1186 232,-1180 238,-1174 244,-1174"/>
<text text-anchor="middle" x="354" y="-1234.8" font-family="Times,serif" font-size="14.00">Cup</text>
<polyline fill="none" stroke="black" points="232,-1227 476,-1227 "/>
<text text-anchor="start" x="240" y="-1211.8" font-family="Times,serif" font-size="14.00">id :integer</text>
<text text-anchor="start" x="240" y="-1196.8" font-family="Times,serif" font-size="14.00">created_at :timestamp without time zone</text>
<text text-anchor="start" x="240" y="-1181.8" font-family="Times,serif" font-size="14.00">updated_at :timestamp without time zone</text>
</g>
<!-- Cup&#45;&gt;Competition -->
<g id="edge3" class="edge"><title>Cup&#45;&gt;Competition</title>
<path fill="none" stroke="#769a18" d="M388.58,-1167.18C398.593,-1154.49 409.858,-1140.22 421.061,-1126.02"/>
<ellipse fill="none" stroke="#769a18" cx="385.877" cy="-1170.61" rx="4.00002" ry="4.00002"/>
<ellipse fill="#769a18" stroke="#769a18" cx="423.722" cy="-1122.65" rx="4.00002" ry="4.00002"/>
</g>
<!-- Score -->
<g id="node8" class="node"><title>Score</title>
<path fill="none" stroke="black" d="M151,-686C151,-686 371,-686 371,-686 377,-686 383,-692 383,-698 383,-698 383,-780 383,-780 383,-786 377,-792 371,-792 371,-792 151,-792 151,-792 145,-792 139,-786 139,-780 139,-780 139,-698 139,-698 139,-692 145,-686 151,-686"/>
<text text-anchor="middle" x="261" y="-776.8" font-family="Times,serif" font-size="14.00">Score</text>
<polyline fill="none" stroke="black" points="139,-769 383,-769 "/>
<text text-anchor="start" x="147" y="-753.8" font-family="Times,serif" font-size="14.00">id :integer</text>
<text text-anchor="start" x="147" y="-738.8" font-family="Times,serif" font-size="14.00">team_id :character varying</text>
<text text-anchor="start" x="147" y="-723.8" font-family="Times,serif" font-size="14.00">fixture_id :character varying</text>
<text text-anchor="start" x="147" y="-708.8" font-family="Times,serif" font-size="14.00">created_at :timestamp without time zone</text>
<text text-anchor="start" x="147" y="-693.8" font-family="Times,serif" font-size="14.00">updated_at :timestamp without time zone</text>
</g>
<!-- Fixture&#45;&gt;Score -->
<g id="edge4" class="edge"><title>Fixture&#45;&gt;Score</title>
<path fill="none" stroke="#edfa16" d="M332.703,-831.549C324.717,-821.353 316.267,-810.564 308.078,-800.109"/>
<ellipse fill="none" stroke="#edfa16" cx="335.403" cy="-834.997" rx="4.00002" ry="4.00002"/>
<polygon fill="#edfa16" stroke="#edfa16" points="308.045,-800.066 305.422,-789.419 304.962,-796.13 301.879,-792.194 301.879,-792.194 301.879,-792.194 304.962,-796.13 298.336,-794.968 308.045,-800.066 308.045,-800.066"/>
</g>
<!-- Fixture&#45;&gt;Team -->
<g id="edge5" class="edge"><title>Fixture&#45;&gt;Team</title>
<path fill="none" stroke="#457f00" d="M427.372,-831.165C435.759,-823.169 444.52,-814.818 453.187,-806.555"/>
<polygon fill="#457f00" stroke="#457f00" points="427.287,-831.246 416.944,-834.889 423.668,-834.696 420.049,-838.146 420.049,-838.146 420.049,-838.146 423.668,-834.696 423.154,-841.403 427.287,-831.246 427.287,-831.246"/>
<polygon fill="#457f00" stroke="#457f00" points="453.198,-806.544 463.541,-802.901 456.817,-803.094 460.436,-799.644 460.436,-799.644 460.436,-799.644 456.817,-803.094 457.331,-796.387 453.198,-806.544 453.198,-806.544"/>
</g>
<!-- Friendship -->
<g id="node5" class="node"><title>Friendship</title>
<path fill="none" stroke="black" d="M413,-0.5C413,-0.5 633,-0.5 633,-0.5 639,-0.5 645,-6.5 645,-12.5 645,-12.5 645,-109.5 645,-109.5 645,-115.5 639,-121.5 633,-121.5 633,-121.5 413,-121.5 413,-121.5 407,-121.5 401,-115.5 401,-109.5 401,-109.5 401,-12.5 401,-12.5 401,-6.5 407,-0.5 413,-0.5"/>
<text text-anchor="middle" x="523" y="-106.3" font-family="Times,serif" font-size="14.00">Friendship</text>
<polyline fill="none" stroke="black" points="401,-98.5 645,-98.5 "/>
<text text-anchor="start" x="409" y="-83.3" font-family="Times,serif" font-size="14.00">id :integer</text>
<text text-anchor="start" x="409" y="-68.3" font-family="Times,serif" font-size="14.00">user_id :integer</text>
<text text-anchor="start" x="409" y="-53.3" font-family="Times,serif" font-size="14.00">friend_id :integer</text>
<text text-anchor="start" x="409" y="-38.3" font-family="Times,serif" font-size="14.00">approved :boolean</text>
<text text-anchor="start" x="409" y="-23.3" font-family="Times,serif" font-size="14.00">created_at :timestamp without time zone</text>
<text text-anchor="start" x="409" y="-8.3" font-family="Times,serif" font-size="14.00">updated_at :timestamp without time zone</text>
</g>
<!-- League -->
<g id="node6" class="node"><title>League</title>
<path fill="none" stroke="black" d="M506,-1174C506,-1174 726,-1174 726,-1174 732,-1174 738,-1180 738,-1186 738,-1186 738,-1238 738,-1238 738,-1244 732,-1250 726,-1250 726,-1250 506,-1250 506,-1250 500,-1250 494,-1244 494,-1238 494,-1238 494,-1186 494,-1186 494,-1180 500,-1174 506,-1174"/>
<text text-anchor="middle" x="616" y="-1234.8" font-family="Times,serif" font-size="14.00">League</text>
<polyline fill="none" stroke="black" points="494,-1227 738,-1227 "/>
<text text-anchor="start" x="502" y="-1211.8" font-family="Times,serif" font-size="14.00">id :integer</text>
<text text-anchor="start" x="502" y="-1196.8" font-family="Times,serif" font-size="14.00">created_at :timestamp without time zone</text>
<text text-anchor="start" x="502" y="-1181.8" font-family="Times,serif" font-size="14.00">updated_at :timestamp without time zone</text>
</g>
<!-- League&#45;&gt;Competition -->
<g id="edge6" class="edge"><title>League&#45;&gt;Competition</title>
<path fill="none" stroke="#e7d8a0" d="M581.42,-1167.18C571.407,-1154.49 560.142,-1140.22 548.939,-1126.02"/>
<ellipse fill="none" stroke="#e7d8a0" cx="584.123" cy="-1170.61" rx="4.00002" ry="4.00002"/>
<ellipse fill="#e7d8a0" stroke="#e7d8a0" cx="546.278" cy="-1122.65" rx="4.00002" ry="4.00002"/>
</g>
<!-- Organisation -->
<g id="node7" class="node"><title>Organisation</title>
<path fill="none" stroke="black" d="M768,-1159C768,-1159 988,-1159 988,-1159 994,-1159 1000,-1165 1000,-1171 1000,-1171 1000,-1253 1000,-1253 1000,-1259 994,-1265 988,-1265 988,-1265 768,-1265 768,-1265 762,-1265 756,-1259 756,-1253 756,-1253 756,-1171 756,-1171 756,-1165 762,-1159 768,-1159"/>
<text text-anchor="middle" x="878" y="-1249.8" font-family="Times,serif" font-size="14.00">Organisation</text>
<polyline fill="none" stroke="black" points="756,-1242 1000,-1242 "/>
<text text-anchor="start" x="764" y="-1226.8" font-family="Times,serif" font-size="14.00">id :integer</text>
<text text-anchor="start" x="764" y="-1211.8" font-family="Times,serif" font-size="14.00">name :character varying</text>
<text text-anchor="start" x="764" y="-1196.8" font-family="Times,serif" font-size="14.00">created_at :timestamp without time zone</text>
<text text-anchor="start" x="764" y="-1181.8" font-family="Times,serif" font-size="14.00">updated_at :timestamp without time zone</text>
<text text-anchor="start" x="764" y="-1166.8" font-family="Times,serif" font-size="14.00">email_extension :character varying</text>
</g>
<!-- Sport -->
<g id="node9" class="node"><title>Sport</title>
<path fill="none" stroke="black" d="M1030,-1166.5C1030,-1166.5 1250,-1166.5 1250,-1166.5 1256,-1166.5 1262,-1172.5 1262,-1178.5 1262,-1178.5 1262,-1245.5 1262,-1245.5 1262,-1251.5 1256,-1257.5 1250,-1257.5 1250,-1257.5 1030,-1257.5 1030,-1257.5 1024,-1257.5 1018,-1251.5 1018,-1245.5 1018,-1245.5 1018,-1178.5 1018,-1178.5 1018,-1172.5 1024,-1166.5 1030,-1166.5"/>
<text text-anchor="middle" x="1140" y="-1242.3" font-family="Times,serif" font-size="14.00">Sport</text>
<polyline fill="none" stroke="black" points="1018,-1234.5 1262,-1234.5 "/>
<text text-anchor="start" x="1026" y="-1219.3" font-family="Times,serif" font-size="14.00">id :integer</text>
<text text-anchor="start" x="1026" y="-1204.3" font-family="Times,serif" font-size="14.00">name :character varying</text>
<text text-anchor="start" x="1026" y="-1189.3" font-family="Times,serif" font-size="14.00">created_at :timestamp without time zone</text>
<text text-anchor="start" x="1026" y="-1174.3" font-family="Times,serif" font-size="14.00">updated_at :timestamp without time zone</text>
</g>
<!-- TeamsCompetition -->
<g id="node11" class="node"><title>TeamsCompetition</title>
<path fill="none" stroke="black" d="M216,-369.5C216,-369.5 336,-369.5 336,-369.5 342,-369.5 348,-375.5 348,-381.5 348,-381.5 348,-418.5 348,-418.5 348,-424.5 342,-430.5 336,-430.5 336,-430.5 216,-430.5 216,-430.5 210,-430.5 204,-424.5 204,-418.5 204,-418.5 204,-381.5 204,-381.5 204,-375.5 210,-369.5 216,-369.5"/>
<text text-anchor="middle" x="276" y="-415.3" font-family="Times,serif" font-size="14.00">TeamsCompetition</text>
<polyline fill="none" stroke="black" points="204,-407.5 348,-407.5 "/>
<text text-anchor="start" x="212" y="-392.3" font-family="Times,serif" font-size="14.00">team_id :integer</text>
<text text-anchor="start" x="212" y="-377.3" font-family="Times,serif" font-size="14.00">competition_id :integer</text>
</g>
<!-- Team&#45;&gt;TeamsCompetition -->
<g id="edge10" class="edge"><title>Team&#45;&gt;TeamsCompetition</title>
<path fill="none" stroke="#7e6bc2" d="M407.247,-673.362C389.048,-659.497 371.741,-643.634 358,-626 314.431,-570.089 292.525,-488.855 282.751,-440.826"/>
<ellipse fill="none" stroke="#7e6bc2" cx="410.778" cy="-675.99" rx="4.00002" ry="4.00002"/>
<polygon fill="#7e6bc2" stroke="#7e6bc2" points="282.713,-440.627 285.209,-429.949 281.752,-435.72 280.792,-430.813 280.792,-430.813 280.792,-430.813 281.752,-435.72 276.376,-431.677 282.713,-440.627 282.713,-440.627"/>
</g>
<!-- User -->
<g id="node12" class="node"><title>User</title>
<path fill="none" stroke="black" d="M378.5,-174.5C378.5,-174.5 667.5,-174.5 667.5,-174.5 673.5,-174.5 679.5,-180.5 679.5,-186.5 679.5,-186.5 679.5,-613.5 679.5,-613.5 679.5,-619.5 673.5,-625.5 667.5,-625.5 667.5,-625.5 378.5,-625.5 378.5,-625.5 372.5,-625.5 366.5,-619.5 366.5,-613.5 366.5,-613.5 366.5,-186.5 366.5,-186.5 366.5,-180.5 372.5,-174.5 378.5,-174.5"/>
<text text-anchor="middle" x="523" y="-610.3" font-family="Times,serif" font-size="14.00">User</text>
<polyline fill="none" stroke="black" points="366.5,-602.5 679.5,-602.5 "/>
<text text-anchor="start" x="374.5" y="-587.3" font-family="Times,serif" font-size="14.00">id :integer</text>
<text text-anchor="start" x="374.5" y="-572.3" font-family="Times,serif" font-size="14.00">email :character varying</text>
<text text-anchor="start" x="374.5" y="-557.3" font-family="Times,serif" font-size="14.00">encrypted_password :character varying</text>
<text text-anchor="start" x="374.5" y="-542.3" font-family="Times,serif" font-size="14.00">reset_password_token :character varying</text>
<text text-anchor="start" x="374.5" y="-527.3" font-family="Times,serif" font-size="14.00">reset_password_sent_at :timestamp without time zone</text>
<text text-anchor="start" x="374.5" y="-512.3" font-family="Times,serif" font-size="14.00">remember_created_at :timestamp without time zone</text>
<text text-anchor="start" x="374.5" y="-497.3" font-family="Times,serif" font-size="14.00">sign_in_count :integer</text>
<text text-anchor="start" x="374.5" y="-482.3" font-family="Times,serif" font-size="14.00">current_sign_in_at :timestamp without time zone</text>
<text text-anchor="start" x="374.5" y="-467.3" font-family="Times,serif" font-size="14.00">last_sign_in_at :timestamp without time zone</text>
<text text-anchor="start" x="374.5" y="-452.3" font-family="Times,serif" font-size="14.00">current_sign_in_ip :inet</text>
<text text-anchor="start" x="374.5" y="-437.3" font-family="Times,serif" font-size="14.00">last_sign_in_ip :inet</text>
<text text-anchor="start" x="374.5" y="-422.3" font-family="Times,serif" font-size="14.00">created_at :timestamp without time zone</text>
<text text-anchor="start" x="374.5" y="-407.3" font-family="Times,serif" font-size="14.00">updated_at :timestamp without time zone</text>
<text text-anchor="start" x="374.5" y="-392.3" font-family="Times,serif" font-size="14.00">name :character varying</text>
<text text-anchor="start" x="374.5" y="-377.3" font-family="Times,serif" font-size="14.00">confirmation_token :character varying</text>
<text text-anchor="start" x="374.5" y="-362.3" font-family="Times,serif" font-size="14.00">confirmed_at :timestamp without time zone</text>
<text text-anchor="start" x="374.5" y="-347.3" font-family="Times,serif" font-size="14.00">confirmation_sent_at :timestamp without time zone</text>
<text text-anchor="start" x="374.5" y="-332.3" font-family="Times,serif" font-size="14.00">unconfirmed_email :character varying</text>
<text text-anchor="start" x="374.5" y="-317.3" font-family="Times,serif" font-size="14.00">role :integer</text>
<text text-anchor="start" x="374.5" y="-302.3" font-family="Times,serif" font-size="14.00">invitation_token :character varying</text>
<text text-anchor="start" x="374.5" y="-287.3" font-family="Times,serif" font-size="14.00">invitation_created_at :timestamp without time zone</text>
<text text-anchor="start" x="374.5" y="-272.3" font-family="Times,serif" font-size="14.00">invitation_sent_at :timestamp without time zone</text>
<text text-anchor="start" x="374.5" y="-257.3" font-family="Times,serif" font-size="14.00">invitation_accepted_at :timestamp without time zone</text>
<text text-anchor="start" x="374.5" y="-242.3" font-family="Times,serif" font-size="14.00">invitation_limit :integer</text>
<text text-anchor="start" x="374.5" y="-227.3" font-family="Times,serif" font-size="14.00">invited_by_id :integer</text>
<text text-anchor="start" x="374.5" y="-212.3" font-family="Times,serif" font-size="14.00">invited_by_type :character varying</text>
<text text-anchor="start" x="374.5" y="-197.3" font-family="Times,serif" font-size="14.00">invitations_count :integer</text>
<text text-anchor="start" x="374.5" y="-182.3" font-family="Times,serif" font-size="14.00">organisation_id :integer</text>
</g>
<!-- Team&#45;&gt;User -->
<g id="edge8" class="edge"><title>Team&#45;&gt;User</title>
<path fill="none" stroke="#60f362" d="M453.274,-669.195C451.68,-666.188 450.245,-663.121 449,-660 445.828,-652.048 443.488,-643.909 441.878,-635.651"/>
<polygon fill="#60f362" stroke="#60f362" points="453.404,-669.415 454.621,-680.313 455.949,-673.719 458.495,-678.022 458.495,-678.022 458.495,-678.022 455.949,-673.719 462.368,-675.732 453.404,-669.415 453.404,-669.415"/>
<polygon fill="#60f362" stroke="#60f362" points="441.838,-635.398 444.712,-624.816 441.053,-630.46 440.268,-625.522 440.268,-625.522 440.268,-625.522 441.053,-630.46 435.824,-626.228 441.838,-635.398 441.838,-635.398"/>
<text text-anchor="middle" x="475" y="-648.3" font-family="Times,serif" font-size="14.00">members</text>
</g>
<!-- Team&#45;&gt;User -->
<g id="edge9" class="edge"><title>Team&#45;&gt;User</title>
<path fill="none" stroke="#7aa879" d="M523,-667.923C523,-657.808 523,-646.964 523,-635.648"/>
<polygon fill="#7aa879" stroke="#7aa879" points="523,-668.139 518.5,-678.139 523,-673.139 523,-678.139 523,-678.139 523,-678.139 523,-673.139 527.5,-678.14 523,-668.139 523,-668.139"/>
<polygon fill="#7aa879" stroke="#7aa879" points="523,-635.587 527.5,-625.587 523,-630.587 523,-625.587 523,-625.587 523,-625.587 523,-630.587 518.5,-625.587 523,-635.587 523,-635.587"/>
<text text-anchor="middle" x="543" y="-648.3" font-family="Times,serif" font-size="14.00">owners</text>
</g>
<!-- UsersTeam -->
<g id="node13" class="node"><title>UsersTeam</title>
<path fill="none" stroke="black" d="M1151,-339.5C1151,-339.5 1371,-339.5 1371,-339.5 1377,-339.5 1383,-345.5 1383,-351.5 1383,-351.5 1383,-448.5 1383,-448.5 1383,-454.5 1377,-460.5 1371,-460.5 1371,-460.5 1151,-460.5 1151,-460.5 1145,-460.5 1139,-454.5 1139,-448.5 1139,-448.5 1139,-351.5 1139,-351.5 1139,-345.5 1145,-339.5 1151,-339.5"/>
<text text-anchor="middle" x="1261" y="-445.3" font-family="Times,serif" font-size="14.00">UsersTeam</text>
<polyline fill="none" stroke="black" points="1139,-437.5 1383,-437.5 "/>
<text text-anchor="start" x="1147" y="-422.3" font-family="Times,serif" font-size="14.00">id :integer</text>
<text text-anchor="start" x="1147" y="-407.3" font-family="Times,serif" font-size="14.00">user_id :integer</text>
<text text-anchor="start" x="1147" y="-392.3" font-family="Times,serif" font-size="14.00">team_id :integer</text>
<text text-anchor="start" x="1147" y="-377.3" font-family="Times,serif" font-size="14.00">is_owner :boolean</text>
<text text-anchor="start" x="1147" y="-362.3" font-family="Times,serif" font-size="14.00">created_at :timestamp without time zone</text>
<text text-anchor="start" x="1147" y="-347.3" font-family="Times,serif" font-size="14.00">updated_at :timestamp without time zone</text>
</g>
<!-- Team&#45;&gt;UsersTeam -->
<g id="edge7" class="edge"><title>Team&#45;&gt;UsersTeam</title>
<path fill="none" stroke="#4866e6" d="M653.449,-726.611C807.986,-710.963 1053.96,-678.611 1129,-626 1182.76,-588.306 1217.96,-521.145 1238.39,-469.981"/>
<ellipse fill="none" stroke="#4866e6" cx="649.223" cy="-727.035" rx="4" ry="4"/>
<polygon fill="#4866e6" stroke="#4866e6" points="1238.4,-469.944 1246.22,-462.257 1240.22,-465.284 1242.03,-460.625 1242.03,-460.625 1242.03,-460.625 1240.22,-465.284 1237.84,-458.992 1238.4,-469.944 1238.4,-469.944"/>
</g>
<!-- User&#45;&gt;Friendship -->
<g id="edge11" class="edge"><title>User&#45;&gt;Friendship</title>
<path fill="none" stroke="#498726" d="M520.749,-166.229C520.807,-157.373 520.89,-148.606 521,-140 521.035,-137.299 521.076,-134.546 521.123,-131.766"/>
<ellipse fill="none" stroke="#498726" cx="520.725" cy="-170.385" rx="4" ry="4"/>
<polygon fill="#498726" stroke="#498726" points="521.126,-131.616 525.813,-121.703 521.22,-126.617 521.314,-121.618 521.314,-121.618 521.314,-121.618 521.22,-126.617 516.815,-121.533 521.126,-131.616 521.126,-131.616"/>
</g>
<!-- User&#45;&gt;Friendship -->
<g id="edge12" class="edge"><title>User&#45;&gt;Friendship</title>
<path fill="none" stroke="#cd59c2" d="M523,-165.85C523,-153.962 523,-142.581 523,-131.999"/>
<ellipse fill="none" stroke="#cd59c2" cx="523" cy="-170.216" rx="4" ry="4"/>
<polygon fill="#cd59c2" stroke="#cd59c2" points="523,-131.694 527.5,-121.694 523,-126.694 523,-121.694 523,-121.694 523,-121.694 523,-126.694 518.5,-121.694 523,-131.694 523,-131.694"/>
<text text-anchor="middle" x="576.5" y="-144.3" font-family="Times,serif" font-size="14.00">passive_friendships</text>
</g>
<!-- User&#45;&gt;Team -->
<g id="edge17" class="edge"><title>User&#45;&gt;Team</title>
<path fill="none" stroke="#090e26" d="M568.503,-635.777C567.44,-643.971 565.958,-652.066 564,-660 563.295,-662.855 562.466,-665.72 561.533,-668.579"/>
<polygon fill="#090e26" stroke="#090e26" points="568.514,-635.678 574.069,-626.223 569.055,-630.707 569.596,-625.736 569.596,-625.736 569.596,-625.736 569.055,-630.707 565.122,-625.249 568.514,-635.678 568.514,-635.678"/>
<polygon fill="#090e26" stroke="#090e26" points="561.433,-668.854 553.775,-676.703 559.717,-673.551 558.002,-678.247 558.002,-678.247 558.002,-678.247 559.717,-673.551 562.228,-679.791 561.433,-668.854 561.433,-668.854"/>
</g>
<!-- User&#45;&gt;User -->
<g id="edge13" class="edge"><title>User&#45;&gt;User</title>
<path fill="none" stroke="#6826fa" d="M689.51,-406.112C694.297,-404.441 697,-402.404 697,-400 697,-397.596 694.297,-395.559 689.51,-393.888"/>
<polygon fill="#6826fa" stroke="#6826fa" points="689.3,-406.164 678.51,-404.209 684.448,-407.37 679.595,-408.576 679.595,-408.576 679.595,-408.576 684.448,-407.37 680.681,-412.943 689.3,-406.164 689.3,-406.164"/>
<polygon fill="#6826fa" stroke="#6826fa" points="689.3,-393.836 680.681,-387.057 684.448,-392.63 679.595,-391.424 679.595,-391.424 679.595,-391.424 684.448,-392.63 678.51,-395.791 689.3,-393.836 689.3,-393.836"/>
<text text-anchor="middle" x="735.5" y="-396.3" font-family="Times,serif" font-size="14.00">active_friends</text>
</g>
<!-- User&#45;&gt;User -->
<g id="edge14" class="edge"><title>User&#45;&gt;User</title>
<path fill="none" stroke="#9220cd" d="M689.677,-423.357C736.679,-421.858 774,-414.072 774,-400 774,-385.928 736.679,-378.142 689.677,-376.643"/>
<polygon fill="#9220cd" stroke="#9220cd" points="689.508,-423.361 679.411,-419.082 684.509,-423.471 679.51,-423.581 679.51,-423.581 679.51,-423.581 684.509,-423.471 679.61,-428.08 689.508,-423.361 689.508,-423.361"/>
<polygon fill="#9220cd" stroke="#9220cd" points="689.508,-376.639 679.61,-371.92 684.509,-376.529 679.51,-376.419 679.51,-376.419 679.51,-376.419 684.509,-376.529 679.411,-380.918 689.508,-376.639 689.508,-376.639"/>
<text text-anchor="middle" x="816.5" y="-396.3" font-family="Times,serif" font-size="14.00">passive_friends</text>
</g>
<!-- User&#45;&gt;User -->
<g id="edge15" class="edge"><title>User&#45;&gt;User</title>
<path fill="none" stroke="#b56323" d="M689.944,-434.93C775.623,-438.097 859,-426.454 859,-400 859,-373.546 775.623,-361.903 689.944,-365.07"/>
<polygon fill="#b56323" stroke="#b56323" points="689.752,-434.921 679.958,-429.988 684.757,-434.702 679.761,-434.484 679.761,-434.484 679.761,-434.484 684.757,-434.702 679.564,-438.979 689.752,-434.921 689.752,-434.921"/>
<polygon fill="#b56323" stroke="#b56323" points="689.752,-365.079 679.564,-361.021 684.757,-365.298 679.761,-365.516 679.761,-365.516 679.761,-365.516 684.757,-365.298 679.958,-370.012 689.752,-365.079 689.752,-365.079"/>
<text text-anchor="middle" x="903" y="-396.3" font-family="Times,serif" font-size="14.00">pending_friends</text>
</g>
<!-- User&#45;&gt;User -->
<g id="edge16" class="edge"><title>User&#45;&gt;User</title>
<path fill="none" stroke="#1fb075" d="M689.726,-444.229C810.439,-454.208 947,-439.465 947,-400 947,-360.535 810.439,-345.792 689.726,-355.771"/>
<polygon fill="#1fb075" stroke="#1fb075" points="689.548,-444.213 679.985,-438.846 684.567,-443.771 679.587,-443.329 679.587,-443.329 679.587,-443.329 684.567,-443.771 679.189,-447.811 689.548,-444.213 689.548,-444.213"/>
<polygon fill="#1fb075" stroke="#1fb075" points="689.548,-355.787 679.189,-352.189 684.567,-356.229 679.587,-356.671 679.587,-356.671 679.587,-356.671 684.567,-356.229 679.985,-361.154 689.548,-355.787 689.548,-355.787"/>
<text text-anchor="middle" x="1006.5" y="-396.3" font-family="Times,serif" font-size="14.00">requested_friendships</text>
</g>
</g>
</svg>
